<svg xmlns="http://www.w3.org/2000/svg" viewBox="0 0 256 256" role="img" aria-labelledby="title desc">
  <title id="title">GeoSkills</title>
  <desc id="desc">Layered geology lines and a geochemical data curve</desc>
  <rect width="256" height="256" rx="48" fill="#16324F"/>
  <path d="M30 72c38-20 72-20 101 0s61 20 95 0" fill="none" stroke="#6FC3B2" stroke-width="12" stroke-linecap="round"/>
  <path d="M30 111c38-20 72-20 101 0s61 20 95 0" fill="none" stroke="#4D9F92" stroke-width="12" stroke-linecap="round"/>
  <path d="M30 150c38-20 72-20 101 0s61 20 95 0" fill="none" stroke="#347C75" stroke-width="12" stroke-linecap="round"/>
  <path d="M38 208V136m0 72h180" fill="none" stroke="#FFFFFF" stroke-width="8" stroke-linecap="round"/>
  <path d="M52 193l42-28 36 11 38-56 38 22" fill="none" stroke="#F29F58" stroke-width="9" stroke-linecap="round" stroke-linejoin="round"/>
  <g fill="#FFFFFF" stroke="#F29F58" stroke-width="6">
    <circle cx="52" cy="193" r="9"/>
    <circle cx="94" cy="165" r="9"/>
    <circle cx="130" cy="176" r="9"/>
    <circle cx="168" cy="120" r="9"/>
    <circle cx="206" cy="142" r="9"/>
  </g>
</svg>
